<mxfile host="app.diagrams.net" modified="2023-04-20T06:04:31.902Z" agent="Mozilla/5.0 (Macintosh; Intel Mac OS X 10_15_7) AppleWebKit/537.36 (KHTML, like Gecko) Chrome/112.0.0.0 Safari/537.36" etag="E4J6bc_Zmr04LMmg5ZPr" version="21.2.1" type="device">
  <diagram name="Page-1" id="LkxcTSptElWItzx-s7ry">
    <mxGraphModel dx="1303" dy="2332" grid="1" gridSize="10" guides="1" tooltips="1" connect="1" arrows="1" fold="1" page="1" pageScale="1" pageWidth="827" pageHeight="1169" math="0" shadow="0">
      <root>
        <mxCell id="0" />
        <mxCell id="1" parent="0" />
        <mxCell id="2" value="Start" style="whiteSpace=wrap;strokeWidth=2;" parent="1" vertex="1">
          <mxGeometry x="300" y="-1120" width="50" height="34" as="geometry" />
        </mxCell>
        <mxCell id="3" value="Define Player Names" style="rounded=1;absoluteArcSize=1;arcSize=14;whiteSpace=wrap;strokeWidth=2;" parent="1" vertex="1">
          <mxGeometry x="40" y="-1030" width="163" height="34" as="geometry" />
        </mxCell>
        <mxCell id="4" value="Start Game" style="rounded=1;absoluteArcSize=1;arcSize=14;whiteSpace=wrap;strokeWidth=2;" parent="1" vertex="1">
          <mxGeometry x="404.5" y="-1040" width="96" height="34" as="geometry" />
        </mxCell>
        <mxCell id="5" value="Play Game" style="rhombus;strokeWidth=2;whiteSpace=wrap;" parent="1" vertex="1">
          <mxGeometry x="390" y="-970" width="125" height="125" as="geometry" />
        </mxCell>
        <mxCell id="6" value="End Game" style="whiteSpace=wrap;strokeWidth=2;" parent="1" vertex="1">
          <mxGeometry x="274" y="-160" width="87" height="34" as="geometry" />
        </mxCell>
        <mxCell id="7" value="End Game" style="whiteSpace=wrap;strokeWidth=2;" parent="1" vertex="1">
          <mxGeometry x="590" y="-150" width="87" height="34" as="geometry" />
        </mxCell>
        <mxCell id="8" value="Next Move" style="rhombus;strokeWidth=2;whiteSpace=wrap;" parent="1" vertex="1">
          <mxGeometry x="422" y="-550" width="124" height="124" as="geometry" />
        </mxCell>
        <mxCell id="9" value="Display Game Board" style="whiteSpace=wrap;strokeWidth=2;" parent="1" vertex="1">
          <mxGeometry x="190" y="-850" width="158" height="30" as="geometry" />
        </mxCell>
        <mxCell id="10" value="Valid Move?" style="rhombus;strokeWidth=2;whiteSpace=wrap;" parent="1" vertex="1">
          <mxGeometry x="361" y="-791" width="131" height="131" as="geometry" />
        </mxCell>
        <mxCell id="11" value="Update Game Board" style="whiteSpace=wrap;strokeWidth=2;" parent="1" vertex="1">
          <mxGeometry x="404.5" y="-630" width="159" height="34" as="geometry" />
        </mxCell>
        <mxCell id="13" value="" style="curved=1;startArrow=none;endArrow=block;exitX=1.0007668711656441;exitY=0.48575367647058826;entryX=0.0013020833333333333;entryY=0.48575367647058826;" parent="1" source="3" target="4" edge="1">
          <mxGeometry relative="1" as="geometry">
            <Array as="points" />
          </mxGeometry>
        </mxCell>
        <mxCell id="14" value="" style="curved=1;startArrow=none;endArrow=block;exitX=1.001953125;exitY=0.48575367647058826;" parent="1" source="4" target="5" edge="1">
          <mxGeometry relative="1" as="geometry">
            <Array as="points" />
          </mxGeometry>
        </mxCell>
        <mxCell id="6Oc21Wv0yGVC5va8XcJ2-25" value="Until 3x3 vertical/ horizontal/diagonal" style="rhombus;strokeWidth=2;whiteSpace=wrap;" vertex="1" parent="1">
          <mxGeometry x="380" y="-390" width="170" height="160" as="geometry" />
        </mxCell>
        <mxCell id="6Oc21Wv0yGVC5va8XcJ2-26" value="" style="endArrow=classic;html=1;rounded=0;" edge="1" parent="1" source="5" target="10">
          <mxGeometry width="50" height="50" relative="1" as="geometry">
            <mxPoint x="292.5" y="-260" as="sourcePoint" />
            <mxPoint x="342.5" y="-310" as="targetPoint" />
          </mxGeometry>
        </mxCell>
        <mxCell id="6Oc21Wv0yGVC5va8XcJ2-28" value="" style="endArrow=classic;html=1;rounded=0;" edge="1" parent="1" target="8">
          <mxGeometry width="50" height="50" relative="1" as="geometry">
            <mxPoint x="481" y="-596" as="sourcePoint" />
            <mxPoint x="514" y="-541" as="targetPoint" />
            <Array as="points" />
          </mxGeometry>
        </mxCell>
        <mxCell id="6Oc21Wv0yGVC5va8XcJ2-29" value="" style="endArrow=classic;html=1;rounded=0;entryX=0.5;entryY=0;entryDx=0;entryDy=0;" edge="1" parent="1">
          <mxGeometry width="50" height="50" relative="1" as="geometry">
            <mxPoint x="459" y="-685" as="sourcePoint" />
            <mxPoint x="492" y="-630" as="targetPoint" />
            <Array as="points">
              <mxPoint x="488" y="-670" />
            </Array>
          </mxGeometry>
        </mxCell>
        <mxCell id="6Oc21Wv0yGVC5va8XcJ2-30" value="" style="endArrow=classic;html=1;rounded=0;" edge="1" parent="1" source="8" target="6Oc21Wv0yGVC5va8XcJ2-25">
          <mxGeometry width="50" height="50" relative="1" as="geometry">
            <mxPoint x="350" y="-430" as="sourcePoint" />
            <mxPoint x="434" y="-380" as="targetPoint" />
            <Array as="points" />
          </mxGeometry>
        </mxCell>
        <mxCell id="6Oc21Wv0yGVC5va8XcJ2-31" value="" style="endArrow=classic;html=1;rounded=0;exitX=1;exitY=1;exitDx=0;exitDy=0;" edge="1" parent="1" source="6Oc21Wv0yGVC5va8XcJ2-25" target="7">
          <mxGeometry width="50" height="50" relative="1" as="geometry">
            <mxPoint x="500.5" y="-210" as="sourcePoint" />
            <mxPoint x="550.5" y="-260" as="targetPoint" />
          </mxGeometry>
        </mxCell>
        <mxCell id="6Oc21Wv0yGVC5va8XcJ2-32" value="" style="endArrow=classic;html=1;rounded=0;entryX=0.5;entryY=0;entryDx=0;entryDy=0;" edge="1" parent="1" source="6Oc21Wv0yGVC5va8XcJ2-25" target="6">
          <mxGeometry width="50" height="50" relative="1" as="geometry">
            <mxPoint x="203" y="-287" as="sourcePoint" />
            <mxPoint x="337" y="-150" as="targetPoint" />
          </mxGeometry>
        </mxCell>
        <mxCell id="6Oc21Wv0yGVC5va8XcJ2-33" value="Player 1 Win" style="text;strokeColor=none;fillColor=none;align=left;verticalAlign=middle;spacingLeft=4;spacingRight=4;overflow=hidden;points=[[0,0.5],[1,0.5]];portConstraint=eastwest;rotatable=0;whiteSpace=wrap;html=1;" vertex="1" parent="1">
          <mxGeometry x="260" y="-210" width="80" height="30" as="geometry" />
        </mxCell>
        <mxCell id="6Oc21Wv0yGVC5va8XcJ2-34" value="Player 2 Win" style="text;strokeColor=none;fillColor=none;align=left;verticalAlign=middle;spacingLeft=4;spacingRight=4;overflow=hidden;points=[[0,0.5],[1,0.5]];portConstraint=eastwest;rotatable=0;whiteSpace=wrap;html=1;" vertex="1" parent="1">
          <mxGeometry x="610" y="-210" width="80" height="30" as="geometry" />
        </mxCell>
        <mxCell id="6Oc21Wv0yGVC5va8XcJ2-35" value="" style="endArrow=classic;html=1;rounded=0;entryX=0.37;entryY=0;entryDx=0;entryDy=0;entryPerimeter=0;" edge="1" parent="1" target="4">
          <mxGeometry width="50" height="50" relative="1" as="geometry">
            <mxPoint x="350" y="-1100" as="sourcePoint" />
            <mxPoint x="400" y="-1150" as="targetPoint" />
          </mxGeometry>
        </mxCell>
        <mxCell id="6Oc21Wv0yGVC5va8XcJ2-37" value="After MVP" style="text;strokeColor=none;fillColor=none;align=left;verticalAlign=middle;spacingLeft=4;spacingRight=4;overflow=hidden;points=[[0,0.5],[1,0.5]];portConstraint=eastwest;rotatable=0;whiteSpace=wrap;html=1;" vertex="1" parent="1">
          <mxGeometry x="50" y="-1070" width="80" height="30" as="geometry" />
        </mxCell>
        <mxCell id="6Oc21Wv0yGVC5va8XcJ2-38" value="Make valid move" style="shape=tape;whiteSpace=wrap;html=1;" vertex="1" parent="1">
          <mxGeometry x="100" y="-700" width="120" height="100" as="geometry" />
        </mxCell>
        <mxCell id="6Oc21Wv0yGVC5va8XcJ2-39" value="" style="endArrow=classic;startArrow=classic;html=1;rounded=0;exitX=1;exitY=0.5;exitDx=0;exitDy=0;exitPerimeter=0;" edge="1" parent="1" source="6Oc21Wv0yGVC5va8XcJ2-38">
          <mxGeometry width="50" height="50" relative="1" as="geometry">
            <mxPoint x="330" y="-660" as="sourcePoint" />
            <mxPoint x="380" y="-710" as="targetPoint" />
          </mxGeometry>
        </mxCell>
        <mxCell id="6Oc21Wv0yGVC5va8XcJ2-42" value="Constant/ after MVP maybe it will appear after starting game&lt;br&gt;" style="text;strokeColor=none;fillColor=none;align=left;verticalAlign=middle;spacingLeft=4;spacingRight=4;overflow=hidden;points=[[0,0.5],[1,0.5]];portConstraint=eastwest;rotatable=0;whiteSpace=wrap;html=1;" vertex="1" parent="1">
          <mxGeometry x="180" y="-920" width="160" height="60" as="geometry" />
        </mxCell>
        <mxCell id="6Oc21Wv0yGVC5va8XcJ2-43" value="Display winner" style="whiteSpace=wrap;strokeWidth=2;" vertex="1" parent="1">
          <mxGeometry x="380" y="-90" width="158" height="30" as="geometry" />
        </mxCell>
        <mxCell id="6Oc21Wv0yGVC5va8XcJ2-44" value="" style="endArrow=classic;html=1;rounded=0;entryX=0;entryY=0.5;entryDx=0;entryDy=0;" edge="1" parent="1" target="6Oc21Wv0yGVC5va8XcJ2-43">
          <mxGeometry width="50" height="50" relative="1" as="geometry">
            <mxPoint x="320" y="-126" as="sourcePoint" />
            <mxPoint x="370" y="-176" as="targetPoint" />
          </mxGeometry>
        </mxCell>
        <mxCell id="6Oc21Wv0yGVC5va8XcJ2-46" value="" style="endArrow=classic;html=1;rounded=0;entryX=1;entryY=0.5;entryDx=0;entryDy=0;" edge="1" parent="1" target="6Oc21Wv0yGVC5va8XcJ2-43">
          <mxGeometry width="50" height="50" relative="1" as="geometry">
            <mxPoint x="625" y="-118" as="sourcePoint" />
            <mxPoint x="675" y="-168" as="targetPoint" />
          </mxGeometry>
        </mxCell>
        <mxCell id="6Oc21Wv0yGVC5va8XcJ2-47" value="After MVP add animations&lt;br&gt;make it look as pretty as our IA&#39;s" style="text;html=1;strokeColor=none;fillColor=none;align=center;verticalAlign=middle;whiteSpace=wrap;rounded=0;" vertex="1" parent="1">
          <mxGeometry x="538" y="-50" width="152" height="30" as="geometry" />
        </mxCell>
        <mxCell id="6Oc21Wv0yGVC5va8XcJ2-48" value="" style="endArrow=classic;html=1;rounded=0;exitX=0.942;exitY=0.68;exitDx=0;exitDy=0;exitPerimeter=0;entryX=0;entryY=0.75;entryDx=0;entryDy=0;" edge="1" parent="1" source="6Oc21Wv0yGVC5va8XcJ2-38" target="11">
          <mxGeometry width="50" height="50" relative="1" as="geometry">
            <mxPoint x="400" y="-560" as="sourcePoint" />
            <mxPoint x="450" y="-610" as="targetPoint" />
          </mxGeometry>
        </mxCell>
      </root>
    </mxGraphModel>
  </diagram>
</mxfile>
